<mxfile host="app.diagrams.net" modified="2024-01-21T17:28:00.413Z" agent="Mozilla/5.0 (Windows NT 10.0; Win64; x64) AppleWebKit/537.36 (KHTML, like Gecko) Chrome/120.0.0.0 Safari/537.36 Edg/120.0.0.0" etag="n9lnvkSrDN2B3ypc4k2W" version="22.1.21" type="github">
  <diagram name="第 1 页" id="4MtcsET39pZy6FB06LH4">
    <mxGraphModel dx="1173" dy="746" grid="1" gridSize="10" guides="1" tooltips="1" connect="1" arrows="1" fold="1" page="1" pageScale="1" pageWidth="827" pageHeight="1169" math="0" shadow="0">
      <root>
        <mxCell id="0" />
        <mxCell id="1" parent="0" />
        <mxCell id="6bMSB-HDoQ7Pz1_waVwc-3" value="" style="edgeStyle=orthogonalEdgeStyle;rounded=0;orthogonalLoop=1;jettySize=auto;html=1;" edge="1" parent="1" source="6bMSB-HDoQ7Pz1_waVwc-1" target="6bMSB-HDoQ7Pz1_waVwc-2">
          <mxGeometry relative="1" as="geometry" />
        </mxCell>
        <mxCell id="6bMSB-HDoQ7Pz1_waVwc-1" value="" style="rounded=1;whiteSpace=wrap;html=1;" vertex="1" parent="1">
          <mxGeometry x="360" y="50" width="120" height="60" as="geometry" />
        </mxCell>
        <mxCell id="6bMSB-HDoQ7Pz1_waVwc-2" value="" style="whiteSpace=wrap;html=1;rounded=1;" vertex="1" parent="1">
          <mxGeometry x="360" y="190" width="120" height="60" as="geometry" />
        </mxCell>
      </root>
    </mxGraphModel>
  </diagram>
</mxfile>
